<?xml version="1.0" encoding="UTF-8" standalone="no"?>
<!-- Generator: Adobe Illustrator 28.0.0, SVG Export Plug-In . SVG Version: 6.00 Build 0)  -->

<svg
   version="1.1"
   id="Layer_1"
   x="0px"
   y="0px"
   viewBox="0 0 1920 1080"
   style="enable-background:new 0 0 1920 1080;"
   xml:space="preserve"
   sodipodi:docname="aaDH-small.svg"
   inkscape:version="1.3.1 (6036e22fae, 2023-11-19, custom)"
   xmlns:inkscape="http://www.inkscape.org/namespaces/inkscape"
   xmlns:sodipodi="http://sodipodi.sourceforge.net/DTD/sodipodi-0.dtd"
   xmlns="http://www.w3.org/2000/svg"
   xmlns:svg="http://www.w3.org/2000/svg"><defs
   id="defs6" /><sodipodi:namedview
   id="namedview6"
   pagecolor="#ffffff"
   bordercolor="#000000"
   borderopacity="0.25"
   inkscape:showpageshadow="2"
   inkscape:pageopacity="0.0"
   inkscape:pagecheckerboard="0"
   inkscape:deskcolor="#d1d1d1"
   inkscape:zoom="1.0067708"
   inkscape:cx="959.50336"
   inkscape:cy="540.34144"
   inkscape:window-width="2502"
   inkscape:window-height="1376"
   inkscape:window-x="0"
   inkscape:window-y="27"
   inkscape:window-maximized="1"
   inkscape:current-layer="g6"
   inkscape:export-bgcolor="#ffffff00" />
<g
   id="g6">
	<path
   d="M805.77,475.81c-11.24-3.66-19.21,0.47-23.93,12.35c-3.36,10.02-8.19,16.4-14.5,19.2c-6.13,1.94-13.02,0.02-20.7-5.76   c-5.92-5.83-12.58-9.67-19.92-11.47c-6.54-2.29-12.73-3.41-18.56-3.4c-5.86-2.96-10.5-10.16-13.91-21.58   c-4.41-12.82-4.18-23.23,0.65-31.24c5.12-9.06,3-16.25-6.36-21.56c-9.45-4.57-16.65-2.47-21.58,6.31   c-3.71,7.53-1.57,14.72,6.36,21.56c8.14,6.57,13.67,15.19,16.64,25.84c3.71,11.79,3.96,19.98,0.77,24.6   c-6.25,3.03-11.97,7.79-17.14,14.29c-6.24,7.6-15.65,9.62-28.24,6.08c-6.12-1.52-10.81-5.29-14.06-11.33   c-4.24-5.83-7.51-9.26-9.85-10.26c-9.2-3.15-15.41,0.06-18.67,9.69c-2.34,9.43,0.7,15.63,9.08,18.58c4.48,1.11,8.66,0.85,12.53-0.8   c6.74-2.69,13.37-3.21,19.91-1.59c10.72,3.95,16.63,9.95,17.68,18.06c1.87,27.41,13.22,44.56,34.09,51.48   c9.63,3.26,18.67,3.52,27.16,0.84c8.05-1.04,15.91,6.56,23.6,22.81c6.15,11.96,8.34,24.23,6.51,36.82   c-1.43,12.67,2.62,20.86,12.15,24.51c11.66,3.76,19.83-0.32,24.49-12.21c3.97-12.49-0.08-20.65-12.15-24.51   c-10.94-3.16-19.75-12.26-26.42-27.36c-7.8-15.85-8.79-27.62-2.95-35.28c1.67-2,3.16-3.91,4.46-5.75   c2.92-4.27,4.84-8.24,5.75-11.92c0.56-1.88,1.03-3.8,1.41-5.79c1.17-6.54,1.21-13.62,0.13-21.26c-0.51-3.16,0.75-6.52,3.8-10.12   c1.72-1.74,4.04-3.33,7.01-4.76c6.86-1.37,14.56-0.99,23.14,1.14c12.47,2.22,20.43-1.88,23.89-12.3   C821.7,488.45,817.64,480.46,805.77,475.81"
   id="path1" />
	
	
	
	
	
</g>
</svg>
