<?xml version="1.0" encoding="utf-8"?>
<!-- Generator: Adobe Illustrator 28.0.0, SVG Export Plug-In . SVG Version: 6.00 Build 0)  -->
<svg version="1.1" id="Layer_1" xmlns="http://www.w3.org/2000/svg" xmlns:xlink="http://www.w3.org/1999/xlink" x="0px" y="0px"
	 viewBox="0 0 1920 1080" style="enable-background:new 0 0 1920 1080;" xml:space="preserve">
<g>
	<path d="M805.77,475.81c-11.24-3.66-19.21,0.47-23.93,12.35c-3.36,10.02-8.19,16.4-14.5,19.2c-6.13,1.94-13.02,0.02-20.7-5.76
		c-5.92-5.83-12.58-9.67-19.92-11.47c-6.54-2.29-12.73-3.41-18.56-3.4c-5.86-2.96-10.5-10.16-13.91-21.58
		c-4.41-12.82-4.18-23.23,0.65-31.24c5.12-9.06,3-16.25-6.36-21.56c-9.45-4.57-16.65-2.47-21.58,6.31
		c-3.71,7.53-1.57,14.72,6.36,21.56c8.14,6.57,13.67,15.19,16.64,25.84c3.71,11.79,3.96,19.98,0.77,24.6
		c-6.25,3.03-11.97,7.79-17.14,14.29c-6.24,7.6-15.65,9.62-28.24,6.08c-6.12-1.52-10.81-5.29-14.06-11.33
		c-4.24-5.83-7.51-9.26-9.85-10.26c-9.2-3.15-15.41,0.06-18.67,9.69c-2.34,9.43,0.7,15.63,9.08,18.58c4.48,1.11,8.66,0.85,12.53-0.8
		c6.74-2.69,13.37-3.21,19.91-1.59c10.72,3.95,16.63,9.95,17.68,18.06c1.87,27.41,13.22,44.56,34.09,51.48
		c9.63,3.26,18.67,3.52,27.16,0.84c8.05-1.04,15.91,6.56,23.6,22.81c6.15,11.96,8.34,24.23,6.51,36.82
		c-1.43,12.67,2.62,20.86,12.15,24.51c11.66,3.76,19.83-0.32,24.49-12.21c3.97-12.49-0.08-20.65-12.15-24.51
		c-10.94-3.16-19.75-12.26-26.42-27.36c-7.8-15.85-8.79-27.62-2.95-35.28c1.67-2,3.16-3.91,4.46-5.75
		c2.92-4.27,4.84-8.24,5.75-11.92c0.56-1.88,1.03-3.8,1.41-5.79c1.17-6.54,1.21-13.62,0.13-21.26c-0.51-3.16,0.75-6.52,3.8-10.12
		c1.72-1.74,4.04-3.33,7.01-4.76c6.86-1.37,14.56-0.99,23.14,1.14c12.47,2.22,20.43-1.88,23.89-12.3
		C821.7,488.45,817.64,480.46,805.77,475.81"/>
	<path d="M809.78,564.61h5.98l-17.27-38.46l-17.91,38.46h5.88l4.03-8.79h15.49L809.78,564.61L809.78,564.61z M792.76,550.69
		l5.62-12.3l5.37,12.3H792.76L792.76,550.69z M819.7,541.78V555c0,2.09,0.22,3.67,0.66,4.73c0.45,1.19,1.23,2.26,2.32,3.21
		c1.78,1.55,4.04,2.32,6.77,2.32c2.75,0,5.02-0.77,6.8-2.32c1.08-0.95,1.84-2.02,2.27-3.21c0.45-1.33,0.68-2.91,0.68-4.73v-13.22
		h-5.27v13.1c0,3.78-1.49,5.67-4.48,5.67c-2.98,0-4.48-1.89-4.48-5.67v-13.1H819.7L819.7,541.78z M853.04,541.15
		c-1.98,0-3.67,0.65-5.06,1.95c-1.36,1.3-2.04,2.94-2.04,4.92c0,1.5,0.4,2.73,1.2,3.68c0.62,0.75,1.7,1.5,3.23,2.25
		c0.55,0.27,1.09,0.52,1.62,0.77c0.53,0.25,1.06,0.51,1.59,0.77c1.37,0.81,2.06,1.69,2.06,2.62c0,1.63-0.89,2.44-2.67,2.44
		c-0.89,0-1.66-0.3-2.3-0.89c-0.33-0.3-0.8-0.99-1.43-2.09l-4.5,2.09c1.59,3.73,4.3,5.6,8.13,5.6c2.23,0,4.14-0.7,5.72-2.11
		c1.62-1.48,2.44-3.32,2.44-5.52c0-1.72-0.48-3.08-1.45-4.1c-0.97-1.01-2.85-2.12-5.65-3.32c-2.03-0.86-3.05-1.72-3.05-2.6
		c0-0.5,0.17-0.91,0.52-1.23c0.34-0.32,0.76-0.48,1.24-0.48c1.02,0,1.87,0.7,2.55,2.09l4.36-2.32
		C858.13,542.66,855.96,541.15,853.04,541.15L853.04,541.15L853.04,541.15z M875.74,546.71v-4.92h-4.1v-8.37h-5.27v8.37h-2.25v4.92
		h2.25v17.91h5.27v-17.91H875.74L875.74,546.71z M879.76,564.61h5.27v-11.84c0-4.34,1.44-6.52,4.31-6.52c0.95,0,1.93,0.36,2.93,1.08
		l2.41-4.83c-1.52-0.91-2.97-1.36-4.36-1.36c-1.05,0-1.95,0.2-2.72,0.59c-0.75,0.38-1.61,1.07-2.58,2.09v-2.04h-5.27V564.61
		L879.76,564.61z M914.97,544.43c-2.11-2.19-4.49-3.28-7.15-3.28c-3.08,0-5.64,1.14-7.69,3.42c-2.05,2.28-3.07,5.13-3.07,8.55
		c0,3.48,1.02,6.39,3.07,8.72c2.06,2.28,4.67,3.42,7.83,3.42c2.5,0,4.84-1.02,7.01-3.05v2.39h5.3v-22.83h-5.3V544.43L914.97,544.43z
		 M904.26,547.97c1.22-1.37,2.73-2.06,4.55-2.06c1.92,0,3.48,0.68,4.69,2.04c1.2,1.39,1.8,3.16,1.8,5.3c0,2.14-0.6,3.91-1.8,5.3
		c-1.2,1.34-2.78,2.02-4.73,2.02c-1.83,0-3.34-0.7-4.55-2.09c-1.17-1.37-1.76-3.16-1.76-5.34
		C902.45,551.08,903.06,549.36,904.26,547.97L904.26,547.97L904.26,547.97z M927.35,525.03v39.59h5.27v-39.59H927.35L927.35,525.03z
		 M956.57,544.43c-2.11-2.19-4.49-3.28-7.15-3.28c-3.08,0-5.64,1.14-7.69,3.42c-2.05,2.28-3.07,5.13-3.07,8.55
		c0,3.48,1.02,6.39,3.07,8.72c2.06,2.28,4.67,3.42,7.83,3.42c2.5,0,4.84-1.02,7.01-3.05v2.39h5.3v-22.83h-5.3V544.43L956.57,544.43z
		 M945.86,547.97c1.22-1.37,2.73-2.06,4.55-2.06c1.92,0,3.48,0.68,4.69,2.04c1.2,1.39,1.8,3.16,1.8,5.3c0,2.14-0.6,3.91-1.8,5.3
		c-1.2,1.34-2.78,2.02-4.73,2.02c-1.83,0-3.34-0.7-4.55-2.09c-1.17-1.37-1.76-3.16-1.76-5.34
		C944.05,551.08,944.65,549.36,945.86,547.97L945.86,547.97L945.86,547.97z M975.7,541.15c-1.98,0-3.67,0.65-5.06,1.95
		c-1.36,1.3-2.04,2.94-2.04,4.92c0,1.5,0.4,2.73,1.2,3.68c0.62,0.75,1.7,1.5,3.23,2.25c0.55,0.27,1.09,0.52,1.62,0.77
		c0.53,0.25,1.06,0.51,1.59,0.77c1.37,0.81,2.06,1.69,2.06,2.62c0,1.63-0.89,2.44-2.67,2.44c-0.89,0-1.66-0.3-2.3-0.89
		c-0.33-0.3-0.8-0.99-1.43-2.09l-4.5,2.09c1.59,3.73,4.3,5.6,8.13,5.6c2.23,0,4.14-0.7,5.72-2.11c1.62-1.48,2.44-3.32,2.44-5.52
		c0-1.72-0.48-3.08-1.45-4.1c-0.97-1.01-2.85-2.12-5.65-3.32c-2.03-0.86-3.05-1.72-3.05-2.6c0-0.5,0.17-0.91,0.52-1.23
		c0.34-0.32,0.76-0.48,1.24-0.48c1.02,0,1.87,0.7,2.55,2.09l4.36-2.32C980.8,542.66,978.62,541.15,975.7,541.15L975.7,541.15
		L975.7,541.15z M988.86,541.78v22.83h5.27v-22.83H988.86L988.86,541.78z M989.07,534.75c0.67,0.67,1.48,1.01,2.44,1.01
		c0.95,0,1.76-0.34,2.41-1.01c0.67-0.67,1.01-1.48,1.01-2.44c0-0.95-0.34-1.76-1.01-2.41c-0.67-0.67-1.48-1.01-2.44-1.01
		c-0.94,0-1.74,0.34-2.41,1.01c-0.67,0.67-1.01,1.47-1.01,2.39C988.06,533.26,988.4,534.08,989.07,534.75L989.07,534.75z
		 M1018.08,544.43c-2.11-2.19-4.49-3.28-7.15-3.28c-3.08,0-5.64,1.14-7.69,3.42c-2.05,2.28-3.07,5.13-3.07,8.55
		c0,3.48,1.02,6.39,3.07,8.72c2.06,2.28,4.67,3.42,7.83,3.42c2.5,0,4.84-1.02,7.01-3.05v2.39h5.3v-22.83h-5.3V544.43L1018.08,544.43
		z M1007.36,547.97c1.22-1.37,2.73-2.06,4.55-2.06c1.92,0,3.48,0.68,4.69,2.04c1.2,1.39,1.8,3.16,1.8,5.3c0,2.14-0.6,3.91-1.8,5.3
		c-1.2,1.34-2.78,2.02-4.73,2.02c-1.83,0-3.34-0.7-4.55-2.09c-1.17-1.37-1.76-3.16-1.76-5.34
		C1005.56,551.08,1006.16,549.36,1007.36,547.97L1007.36,547.97L1007.36,547.97z M1030.46,564.61h5.3v-11
		c0-2.84,0.36-4.83,1.08-5.97c0.73-1.15,1.98-1.73,3.73-1.73c1.61,0,2.72,0.44,3.33,1.31c0.62,0.86,0.94,2.41,0.94,4.66v12.73h5.3
		v-13.99c0-3.22-0.64-5.54-1.92-6.96c-1.48-1.67-3.55-2.51-6.21-2.51c-2.31,0-4.39,0.91-6.23,2.74v-2.11h-5.3V564.61L1030.46,564.61
		z M1098.52,564.61h5.98l-17.27-38.46l-17.91,38.46h5.88l4.03-8.79h15.49L1098.52,564.61L1098.52,564.61z M1081.5,550.69l5.62-12.3
		l5.37,12.3H1081.5L1081.5,550.69z M1115.19,541.15c-1.98,0-3.67,0.65-5.06,1.95c-1.36,1.3-2.04,2.94-2.04,4.92
		c0,1.5,0.4,2.73,1.2,3.68c0.62,0.75,1.7,1.5,3.23,2.25c0.55,0.27,1.09,0.52,1.62,0.77c0.53,0.25,1.06,0.51,1.59,0.77
		c1.37,0.81,2.06,1.69,2.06,2.62c0,1.63-0.89,2.44-2.67,2.44c-0.89,0-1.66-0.3-2.3-0.89c-0.33-0.3-0.8-0.99-1.43-2.09l-4.5,2.09
		c1.59,3.73,4.3,5.6,8.13,5.6c2.23,0,4.14-0.7,5.72-2.11c1.62-1.48,2.44-3.32,2.44-5.52c0-1.72-0.48-3.08-1.45-4.1
		c-0.97-1.01-2.85-2.12-5.65-3.32c-2.03-0.86-3.05-1.72-3.05-2.6c0-0.5,0.17-0.91,0.52-1.23c0.34-0.32,0.76-0.48,1.24-0.48
		c1.02,0,1.87,0.7,2.55,2.09l4.36-2.32C1120.29,542.66,1118.12,541.15,1115.19,541.15L1115.19,541.15L1115.19,541.15z
		 M1135.1,541.15c-1.98,0-3.67,0.65-5.06,1.95c-1.36,1.3-2.04,2.94-2.04,4.92c0,1.5,0.4,2.73,1.2,3.68c0.62,0.75,1.7,1.5,3.23,2.25
		c0.55,0.27,1.09,0.52,1.62,0.77c0.53,0.25,1.06,0.51,1.59,0.77c1.37,0.81,2.06,1.69,2.06,2.62c0,1.63-0.89,2.44-2.67,2.44
		c-0.89,0-1.66-0.3-2.3-0.89c-0.33-0.3-0.8-0.99-1.43-2.09l-4.5,2.09c1.59,3.73,4.3,5.6,8.13,5.6c2.23,0,4.14-0.7,5.72-2.11
		c1.62-1.48,2.44-3.32,2.44-5.52c0-1.72-0.48-3.08-1.45-4.1c-0.97-1.01-2.85-2.12-5.65-3.32c-2.03-0.86-3.05-1.72-3.05-2.6
		c0-0.5,0.17-0.91,0.52-1.23c0.34-0.32,0.76-0.48,1.24-0.48c1.02,0,1.87,0.7,2.55,2.09l4.36-2.32
		C1140.2,542.66,1138.02,541.15,1135.1,541.15L1135.1,541.15L1135.1,541.15z M1150.65,561.75c2.31,2.34,5.18,3.52,8.6,3.52
		c3.45,0,6.37-1.15,8.74-3.45c2.36-2.31,3.54-5.18,3.54-8.6c0-3.39-1.17-6.25-3.52-8.58c-2.38-2.33-5.27-3.49-8.67-3.49
		c-3.39,0-6.27,1.16-8.62,3.47c-2.36,2.31-3.54,5.12-3.54,8.41C1147.18,556.54,1148.34,559.44,1150.65,561.75L1150.65,561.75
		L1150.65,561.75z M1154.45,547.93c1.25-1.34,2.88-2.02,4.9-2.02c2.05,0,3.7,0.67,4.95,2.02c1.23,1.33,1.85,3.1,1.85,5.32
		c0,2.22-0.62,3.99-1.85,5.32c-1.23,1.33-2.88,1.99-4.95,1.99c-2.05,0-3.7-0.67-4.95-2.02c-1.22-1.33-1.83-3.13-1.83-5.41
		C1152.57,551,1153.2,549.27,1154.45,547.93L1154.45,547.93z M1188.94,541.15c-3.5,0-6.45,1.17-8.86,3.52
		c-2.41,2.34-3.61,5.22-3.61,8.62c0,3.41,1.19,6.26,3.56,8.55c2.37,2.28,5.33,3.42,8.86,3.42c2.14,0,4.28-0.55,6.42-1.66v-6.96
		c-1.27,1.53-2.37,2.56-3.3,3.09c-0.97,0.55-2.09,0.82-3.35,0.82c-1.98,0-3.62-0.69-4.9-2.06c-1.27-1.37-1.9-3.13-1.9-5.27
		c0-2.09,0.66-3.84,1.97-5.23c1.31-1.39,2.96-2.09,4.95-2.09c1.27,0,2.37,0.28,3.3,0.84c0.95,0.55,2.03,1.55,3.23,3.02v-7.01
		C1193.31,541.69,1191.19,541.15,1188.94,541.15L1188.94,541.15L1188.94,541.15z M1200.85,541.78v22.83h5.27v-22.83H1200.85
		L1200.85,541.78z M1201.06,534.75c0.67,0.67,1.48,1.01,2.44,1.01c0.95,0,1.76-0.34,2.41-1.01c0.67-0.67,1.01-1.48,1.01-2.44
		c0-0.95-0.34-1.76-1.01-2.41c-0.67-0.67-1.48-1.01-2.44-1.01c-0.94,0-1.74,0.34-2.41,1.01c-0.67,0.67-1.01,1.47-1.01,2.39
		C1200.05,533.26,1200.39,534.08,1201.06,534.75L1201.06,534.75z M1230.06,544.43c-2.11-2.19-4.49-3.28-7.15-3.28
		c-3.08,0-5.64,1.14-7.69,3.42c-2.05,2.28-3.07,5.13-3.07,8.55c0,3.48,1.02,6.39,3.07,8.72c2.06,2.28,4.67,3.42,7.83,3.42
		c2.5,0,4.84-1.02,7.01-3.05v2.39h5.3v-22.83h-5.3V544.43L1230.06,544.43z M1219.35,547.97c1.22-1.37,2.73-2.06,4.55-2.06
		c1.92,0,3.48,0.68,4.69,2.04c1.2,1.39,1.8,3.16,1.8,5.3c0,2.14-0.6,3.91-1.8,5.3c-1.2,1.34-2.78,2.02-4.73,2.02
		c-1.83,0-3.34-0.7-4.55-2.09c-1.17-1.37-1.76-3.16-1.76-5.34C1217.55,551.08,1218.15,549.36,1219.35,547.97L1219.35,547.97
		L1219.35,547.97z M1251.99,546.71v-4.92h-4.1v-8.37h-5.27v8.37h-2.25v4.92h2.25v17.91h5.27v-17.91H1251.99L1251.99,546.71z
		 M1256.01,541.78v22.83h5.27v-22.83H1256.01L1256.01,541.78z M1256.22,534.75c0.67,0.67,1.48,1.01,2.44,1.01
		c0.95,0,1.76-0.34,2.41-1.01c0.67-0.67,1.01-1.48,1.01-2.44c0-0.95-0.34-1.76-1.01-2.41c-0.67-0.67-1.48-1.01-2.44-1.01
		c-0.94,0-1.74,0.34-2.41,1.01c-0.67,0.67-1.01,1.47-1.01,2.39C1255.21,533.26,1255.55,534.08,1256.22,534.75L1256.22,534.75z
		 M1270.78,561.75c2.31,2.34,5.18,3.52,8.6,3.52c3.45,0,6.37-1.15,8.74-3.45c2.36-2.31,3.54-5.18,3.54-8.6
		c0-3.39-1.17-6.25-3.52-8.58c-2.38-2.33-5.27-3.49-8.67-3.49c-3.39,0-6.27,1.16-8.62,3.47c-2.36,2.31-3.54,5.12-3.54,8.41
		C1267.31,556.54,1268.47,559.44,1270.78,561.75L1270.78,561.75L1270.78,561.75z M1274.58,547.93c1.25-1.34,2.88-2.02,4.9-2.02
		c2.05,0,3.7,0.67,4.95,2.02c1.23,1.33,1.85,3.1,1.85,5.32c0,2.22-0.62,3.99-1.85,5.32c-1.23,1.33-2.88,1.99-4.95,1.99
		c-2.05,0-3.7-0.67-4.95-2.02c-1.22-1.33-1.83-3.13-1.83-5.41C1272.7,551,1273.33,549.27,1274.58,547.93L1274.58,547.93z"/>
	<path d="M1298.52,564.61h5.3v-11c0-2.84,0.36-4.83,1.08-5.97c0.73-1.15,1.98-1.73,3.73-1.73c1.61,0,2.72,0.44,3.33,1.31
		c0.62,0.86,0.94,2.41,0.94,4.66v12.73h5.3v-13.99c0-3.22-0.64-5.54-1.92-6.96c-1.48-1.67-3.55-2.51-6.21-2.51
		c-2.31,0-4.39,0.91-6.23,2.74v-2.11h-5.3V564.61L1298.52,564.61z"/>
	<path d="M827.52,601.71v-4.92h-5.74v-7.52c0-1.88,0.16-3.14,0.49-3.8c0.33-0.67,0.96-1.01,1.9-1.01c0.73,0,1.67,0.29,2.81,0.87
		l0.54,0.28v-5.39c-1.42-0.55-2.6-0.82-3.54-0.82c-2.62,0-4.63,0.83-6,2.48c-1,1.19-1.5,3.22-1.5,6.09v8.81h-1.88v4.92h1.88v17.91
		h5.3v-17.91H827.52L827.52,601.71z"/>
	<path d="M834.06,616.76c2.31,2.34,5.18,3.52,8.6,3.52c3.45,0,6.37-1.15,8.74-3.45c2.36-2.31,3.54-5.18,3.54-8.6
		c0-3.39-1.17-6.25-3.52-8.58c-2.38-2.33-5.27-3.49-8.67-3.49c-3.39,0-6.27,1.16-8.62,3.47c-2.36,2.31-3.54,5.12-3.54,8.41
		C830.59,611.54,831.75,614.45,834.06,616.76L834.06,616.76L834.06,616.76z M837.86,602.93c1.25-1.34,2.88-2.02,4.9-2.02
		c2.05,0,3.7,0.67,4.95,2.02c1.23,1.33,1.85,3.1,1.85,5.32c0,2.22-0.62,3.99-1.85,5.32c-1.23,1.33-2.88,1.99-4.95,1.99
		c-2.05,0-3.7-0.67-4.95-2.02c-1.22-1.33-1.83-3.13-1.83-5.41C835.98,606.01,836.61,604.28,837.86,602.93L837.86,602.93z
		 M861,619.62h5.27v-11.84c0-4.34,1.44-6.52,4.31-6.52c0.95,0,1.93,0.36,2.93,1.08l2.41-4.83c-1.52-0.91-2.97-1.36-4.36-1.36
		c-1.05,0-1.95,0.2-2.72,0.59c-0.75,0.38-1.61,1.07-2.58,2.09v-2.04H861V619.62L861,619.62z M903.23,619.62
		c3.67,0,6.51-0.34,8.51-1.01c2.14-0.67,4.19-1.87,6.14-3.59c3.89-3.44,5.84-7.94,5.84-13.5c0-5.55-1.87-10.02-5.6-13.43
		c-1.84-1.69-3.9-2.88-6.16-3.59c-2.11-0.72-4.98-1.08-8.62-1.08h-7.59v36.19H903.23L903.23,619.62z M901.2,588.57h2.46
		c4.66,0,8.18,1.1,10.57,3.3c2.66,2.47,3.98,5.69,3.98,9.66c0,3.94-1.34,7.13-4.03,9.59c-1.31,1.19-2.78,2.05-4.41,2.6
		c-1.63,0.52-3.66,0.77-6.12,0.77h-2.46V588.57L901.2,588.57z M930.06,596.79v22.83h5.27v-22.83H930.06L930.06,596.79z
		 M930.27,589.76c0.67,0.67,1.48,1.01,2.44,1.01c0.95,0,1.76-0.34,2.41-1.01c0.67-0.67,1.01-1.48,1.01-2.44
		c0-0.95-0.34-1.76-1.01-2.41c-0.67-0.67-1.48-1.01-2.44-1.01c-0.94,0-1.74,0.34-2.41,1.01c-0.67,0.67-1.01,1.47-1.01,2.39
		C929.26,588.27,929.6,589.09,930.27,589.76L930.27,589.76z M964.57,596.79h-5.27v2.58c-1.91-2.14-4.3-3.21-7.17-3.21
		c-3.28,0-5.92,1.23-7.92,3.7c-1.86,2.33-2.79,5.16-2.79,8.48c0,3.42,1,6.27,3,8.55c1.98,2.25,4.53,3.38,7.64,3.38
		c2.73,0,5.15-1.07,7.24-3.21v3.19c0,4.72-1.93,7.08-5.79,7.08c-2.09,0-3.69-0.71-4.78-2.13c-0.47-0.61-0.8-1.48-1.01-2.6h-5.3
		c0.31,2.98,1.48,5.32,3.52,7.02c1.97,1.65,4.48,2.47,7.52,2.47c3.61,0,6.45-1.19,8.51-3.56c1.09-1.23,1.83-2.71,2.2-4.43
		c0.12-0.63,0.22-1.35,0.29-2.17s0.11-1.77,0.11-2.85V596.79L964.57,596.79z M957.89,613.37c-1.17,1.47-2.77,2.2-4.78,2.2
		s-3.59-0.73-4.73-2.18c-1.05-1.33-1.57-3.03-1.57-5.1c0-2.11,0.52-3.82,1.57-5.15c1.16-1.48,2.73-2.22,4.73-2.22
		c1.88,0,3.41,0.68,4.62,2.04c1.19,1.33,1.78,3.1,1.78,5.31C959.51,610.34,958.97,612.04,957.89,613.37L957.89,613.37L957.89,613.37
		z M971.71,596.79v22.83h5.27v-22.83H971.71L971.71,596.79z M971.92,589.76c0.67,0.67,1.48,1.01,2.44,1.01
		c0.95,0,1.76-0.34,2.41-1.01c0.67-0.67,1.01-1.48,1.01-2.44c0-0.95-0.34-1.76-1.01-2.41c-0.67-0.67-1.48-1.01-2.44-1.01
		c-0.94,0-1.74,0.34-2.41,1.01c-0.67,0.67-1.01,1.47-1.01,2.39C970.91,588.27,971.24,589.09,971.92,589.76L971.92,589.76z
		 M993.68,601.71v-4.92h-4.1v-8.37h-5.27v8.37h-2.25v4.92h2.25v17.91h5.27v-17.91H993.68L993.68,601.71z M1014.57,599.44
		c-2.11-2.19-4.49-3.28-7.15-3.28c-3.08,0-5.64,1.14-7.69,3.42c-2.05,2.28-3.07,5.13-3.07,8.55c0,3.48,1.02,6.39,3.07,8.72
		c2.06,2.28,4.67,3.42,7.83,3.42c2.5,0,4.84-1.02,7.01-3.05v2.39h5.3v-22.83h-5.3V599.44L1014.57,599.44z M1003.86,602.98
		c1.22-1.37,2.73-2.06,4.55-2.06c1.92,0,3.48,0.68,4.69,2.04c1.2,1.39,1.8,3.16,1.8,5.3c0,2.14-0.6,3.91-1.8,5.3
		c-1.2,1.34-2.78,2.02-4.73,2.02c-1.83,0-3.34-0.7-4.55-2.09c-1.17-1.37-1.76-3.16-1.76-5.34
		C1002.06,606.09,1002.66,604.37,1003.86,602.98L1003.86,602.98L1003.86,602.98z M1027.01,580.04v39.59h5.27v-39.59H1027.01
		L1027.01,580.04z M1061.2,583.43h-5.46v36.19h5.46v-16.9h15.61v16.9h5.46v-36.19h-5.46v14.16h-15.61V583.43L1061.2,583.43z
		 M1090.41,596.79v13.22c0,2.09,0.22,3.67,0.66,4.73c0.45,1.19,1.23,2.26,2.32,3.21c1.78,1.55,4.04,2.32,6.77,2.32
		c2.75,0,5.02-0.77,6.8-2.32c1.08-0.95,1.84-2.02,2.27-3.21c0.45-1.33,0.68-2.91,0.68-4.73v-13.22h-5.27v13.1
		c0,3.78-1.49,5.67-4.48,5.67c-2.98,0-4.48-1.89-4.48-5.67v-13.1H1090.41L1090.41,596.79z M1117.05,619.62h5.27v-11.79
		c0-2.39,0.34-4.14,1.02-5.25c0.68-1.11,1.76-1.66,3.25-1.66c2.34,0,3.52,2.03,3.52,6.09v12.61h5.3v-11.79c0-2.42,0.33-4.18,1-5.27
		c0.66-1.09,1.72-1.64,3.18-1.64c1.25,0,2.15,0.46,2.7,1.38c0.53,0.91,0.8,2.45,0.8,4.64v12.68h5.3v-14.11
		c0-6.23-2.57-9.35-7.71-9.35c-2.83,0-5.07,1.12-6.73,3.38c-1.5-2.25-3.54-3.38-6.12-3.38c-1.16,0-2.12,0.2-2.88,0.59
		c-0.72,0.38-1.59,1.09-2.6,2.16v-2.11h-5.27V619.62L1117.05,619.62z M1172.33,599.44c-2.11-2.19-4.49-3.28-7.15-3.28
		c-3.08,0-5.64,1.14-7.69,3.42c-2.05,2.28-3.07,5.13-3.07,8.55c0,3.48,1.02,6.39,3.07,8.72c2.06,2.28,4.67,3.42,7.83,3.42
		c2.5,0,4.84-1.02,7.01-3.05v2.39h5.3v-22.83h-5.3V599.44L1172.33,599.44z M1161.62,602.98c1.22-1.37,2.73-2.06,4.55-2.06
		c1.92,0,3.48,0.68,4.69,2.04c1.2,1.39,1.8,3.16,1.8,5.3c0,2.14-0.6,3.91-1.8,5.3c-1.2,1.34-2.78,2.02-4.73,2.02
		c-1.83,0-3.34-0.7-4.55-2.09c-1.17-1.37-1.76-3.16-1.76-5.34C1159.81,606.09,1160.41,604.37,1161.62,602.98L1161.62,602.98
		L1161.62,602.98z M1184.76,619.62h5.3v-11c0-2.84,0.36-4.83,1.08-5.97c0.73-1.15,1.98-1.73,3.73-1.73c1.61,0,2.72,0.44,3.33,1.31
		c0.62,0.86,0.94,2.41,0.94,4.66v12.73h5.3v-13.99c0-3.22-0.64-5.54-1.92-6.96c-1.48-1.67-3.55-2.51-6.21-2.51
		c-2.31,0-4.39,0.91-6.23,2.74v-2.11h-5.3V619.62L1184.76,619.62z M1211.56,596.79v22.83h5.27v-22.83H1211.56L1211.56,596.79z
		 M1211.77,589.76c0.67,0.67,1.48,1.01,2.44,1.01c0.95,0,1.76-0.34,2.41-1.01c0.67-0.67,1.01-1.48,1.01-2.44
		c0-0.95-0.34-1.76-1.01-2.41c-0.67-0.67-1.48-1.01-2.44-1.01c-0.94,0-1.74,0.34-2.41,1.01c-0.67,0.67-1.01,1.47-1.01,2.39
		C1210.76,588.27,1211.1,589.09,1211.77,589.76L1211.77,589.76z M1233.53,601.71v-4.92h-4.1v-8.37h-5.27v8.37h-2.25v4.92h2.25v17.91
		h5.27v-17.91H1233.53L1233.53,601.71z M1237.6,596.79v22.83h5.27v-22.83H1237.6L1237.6,596.79z M1237.81,589.76
		c0.67,0.67,1.48,1.01,2.44,1.01c0.95,0,1.76-0.34,2.41-1.01c0.67-0.67,1.01-1.48,1.01-2.44c0-0.95-0.34-1.76-1.01-2.41
		c-0.67-0.67-1.48-1.01-2.44-1.01c-0.94,0-1.74,0.34-2.41,1.01c-0.67,0.67-1.01,1.47-1.01,2.39
		C1236.8,588.27,1237.14,589.09,1237.81,589.76L1237.81,589.76z M1270.84,608.21c0-3.77-0.97-6.71-2.91-8.84
		c-1.95-2.14-4.61-3.21-7.97-3.21c-3.33,0-6,1.1-8.02,3.3c-2,2.23-3,5.16-3,8.77c0,3.64,1.03,6.56,3.09,8.77
		c2.06,2.19,4.8,3.28,8.2,3.28c1.19,0,2.29-0.13,3.3-0.38c1.02-0.25,1.96-0.64,2.84-1.18c0.87-0.54,1.7-1.23,2.46-2.06
		c0.77-0.84,1.49-1.84,2.18-3.01l-4.45-2.48c-1.08,1.69-2.04,2.84-2.88,3.47c-0.86,0.63-1.95,0.94-3.26,0.94
		c-1.69,0-3.07-0.55-4.15-1.64c-1.08-1.11-1.69-2.6-1.83-4.48h16.36L1270.84,608.21L1270.84,608.21z M1254.81,605.14
		c0.17-0.66,0.42-1.24,0.75-1.76s0.72-0.96,1.18-1.32c0.46-0.37,0.97-0.65,1.54-0.84c0.56-0.2,1.16-0.29,1.8-0.29
		c2.81,0,4.59,1.41,5.32,4.22H1254.81L1254.81,605.14z"/>
	<path d="M1284.24,596.16c-1.98,0-3.67,0.65-5.06,1.95c-1.36,1.3-2.04,2.94-2.04,4.92c0,1.5,0.4,2.73,1.2,3.68
		c0.62,0.75,1.7,1.5,3.23,2.25c0.55,0.27,1.09,0.52,1.62,0.77c0.53,0.25,1.06,0.51,1.59,0.77c1.37,0.81,2.06,1.69,2.06,2.62
		c0,1.63-0.89,2.44-2.67,2.44c-0.89,0-1.66-0.3-2.3-0.89c-0.33-0.3-0.8-0.99-1.43-2.09l-4.5,2.09c1.59,3.73,4.3,5.6,8.13,5.6
		c2.23,0,4.14-0.7,5.72-2.11c1.62-1.48,2.44-3.32,2.44-5.52c0-1.72-0.48-3.08-1.45-4.1c-0.97-1.01-2.85-2.12-5.65-3.32
		c-2.03-0.86-3.05-1.72-3.05-2.6c0-0.5,0.17-0.91,0.52-1.23c0.34-0.32,0.76-0.48,1.24-0.48c1.02,0,1.87,0.7,2.55,2.09l4.36-2.32
		C1289.34,597.67,1287.16,596.16,1284.24,596.16L1284.24,596.16L1284.24,596.16z"/>
</g>
</svg>
